<?xml version="1.0" encoding="UTF-8"?>
<svg version="1.1" xmlns="http://www.w3.org/2000/svg" width="1024" height="1024">
<path d="M0 0 C337.92 0 675.84 0 1024 0 C1024 337.92 1024 675.84 1024 1024 C686.08 1024 348.16 1024 0 1024 C0 686.08 0 348.16 0 0 Z " fill="#FEFEFE" transform="translate(0,0)"/>
<path d="M0 0 C1.9434581 -0.00855011 1.9434581 -0.00855011 3.92617798 -0.01727295 C6.65049619 -0.02766277 9.37478599 -0.03358213 12.09912109 -0.03710938 C14.83298253 -0.04147063 17.56652422 -0.05529569 20.30029297 -0.078125 C34.20625149 -0.19168107 47.99865667 -0.09124992 61.828125 1.53125 C62.8316098 1.64797058 63.8350946 1.76469116 64.86898804 1.88494873 C79.73318082 3.8589735 79.73318082 3.8589735 84.1640625 9.453125 C84.83888672 10.26523438 84.83888672 10.26523438 85.52734375 11.09375 C90.06727349 18.3254965 91.47698302 26.46592837 93.2890625 34.703125 C93.44152435 35.38487793 93.59398621 36.06663086 93.75106812 36.76904297 C95.99215225 46.79314764 97.98454231 56.83743226 99.60913086 66.98242188 C100.3935549 71.85107128 101.43032366 76.46952951 102.8515625 81.203125 C104.73155654 89.18994533 106.2122413 98.60385268 101.9375 106.01171875 C99.51234038 109.6381852 96.73006822 112.93218916 93.8515625 116.203125 C93.07554687 117.13125 92.29953125 118.059375 91.5 119.015625 C85.52307514 125.94294428 78.96205728 132.81217832 70.8515625 137.203125 C70.1915625 137.203125 69.5315625 137.203125 68.8515625 137.203125 C68.8515625 137.863125 68.8515625 138.523125 68.8515625 139.203125 C68.14128906 139.40808594 67.43101562 139.61304688 66.69921875 139.82421875 C65.78011719 140.09363281 64.86101562 140.36304688 63.9140625 140.640625 C62.99753906 140.90746094 62.08101562 141.17429687 61.13671875 141.44921875 C58.9113132 141.99338551 58.9113132 141.99338551 57.8515625 143.203125 C47.5742717 145.53125042 37.20566079 145.60282783 26.7265625 145.578125 C25.89585236 145.57791351 25.06514221 145.57770203 24.20925903 145.57748413 C3.30531374 145.52467427 -16.57573627 142.47153766 -36.8203125 137.25390625 C-40.58485669 136.29618631 -44.29353031 135.67210435 -48.1484375 135.203125 C-49.88955088 147.72869093 -51.56875467 160.25802888 -53.05786133 172.81640625 C-53.62481709 177.48384644 -54.28770784 182.09552299 -55.16796875 186.71484375 C-61.44014655 220.27263224 -59.29010499 256.03737072 -52.1484375 289.203125 C-50.08885052 299.63611479 -48.30083081 310.10728478 -46.59399414 320.60327148 C-45.83458194 325.24112405 -45.03627013 329.85960556 -44.09765625 334.46484375 C-41.53691067 347.08503697 -40.93279117 359.61698306 -40.85089111 372.46096802 C-40.84109868 373.97018178 -40.82674604 375.47937447 -40.80731201 376.98849487 C-40.69626549 386.86212854 -41.55827462 396.11868012 -43.50317383 405.80444336 C-44.24170005 409.11778455 -44.24170005 409.11778455 -44.1484375 412.203125 C-43.37242187 411.53667969 -42.59640625 410.87023437 -41.796875 410.18359375 C-36.08542488 405.3020048 -30.32991886 400.50323814 -24.3984375 395.890625 C-18.23587407 391.09829491 -12.20240536 386.16159334 -6.18676758 381.18652344 C-1.75331199 377.5210084 2.70617808 373.89416586 7.2109375 370.31640625 C9.33511239 368.61643788 11.44767542 366.90467321 13.5546875 365.18359375 C20.75677957 359.30068387 27.99244252 353.49087442 35.390625 347.85546875 C37.96606102 345.89103793 40.51791062 343.89875277 43.0625 341.89453125 C86.47642132 307.72857379 131.32252371 293.16743722 186.8515625 295.203125 C187.23375017 296.85927157 187.56551352 298.52769524 187.8515625 300.203125 C186.30261231 301.75207519 184.82237269 301.34831845 182.6640625 301.37890625 C155.25693318 302.0122184 128.04211243 304.98884122 101.93530273 313.62866211 C99.1026122 314.56068505 96.8580173 315.203125 93.8515625 315.203125 C93.8515625 315.863125 93.8515625 316.523125 93.8515625 317.203125 C93.25730469 317.42226563 92.66304687 317.64140625 92.05078125 317.8671875 C79.52643645 322.65877198 69.34917084 329.53636893 58.81640625 337.68359375 C56.97968362 339.10404127 55.13606432 340.51483316 53.2890625 341.921875 C45.5090151 347.85841648 37.84325276 353.93031989 30.2734375 360.1328125 C23.34557676 365.8009836 16.36980454 371.37049078 9.2265625 376.765625 C2.60074243 381.77612781 -3.73818512 387.03741342 -10.00390625 392.48828125 C-14.27507391 396.19891466 -18.70465018 399.70262918 -23.1484375 403.203125 C-28.48207151 407.44791506 -33.7971748 411.71502586 -39.0859375 416.015625 C-40.42978516 417.10810547 -40.42978516 417.10810547 -41.80078125 418.22265625 C-44.10283023 420.08965568 -44.10283023 420.08965568 -45.80078125 421.94921875 C-47.1484375 423.203125 -47.1484375 423.203125 -49.7734375 423.453125 C-52.1484375 423.203125 -52.1484375 423.203125 -53.1484375 422.203125 C-52.49149645 416.38023838 -51.34448234 410.62631215 -50.25390625 404.87109375 C-48.19880482 393.59917376 -47.91059574 382.31732035 -47.8984375 370.890625 C-47.89709808 370.14289825 -47.89575867 369.39517151 -47.89437866 368.62478638 C-47.8992873 355.93122747 -48.89195325 343.70878454 -51.1484375 331.203125 C-51.40405104 329.68648467 -51.65800057 328.16956281 -51.91015625 326.65234375 C-52.61261132 322.49414338 -53.37291524 318.3482266 -54.1484375 314.203125 C-54.41031651 312.78518584 -54.67203388 311.36721682 -54.93359375 309.94921875 C-55.97292427 304.34008186 -57.03143161 298.7348859 -58.1484375 293.140625 C-58.303125 292.36332031 -58.4578125 291.58601563 -58.6171875 290.78515625 C-59.01708706 288.84152675 -59.43721803 286.90204316 -59.8671875 284.96484375 C-61.66567576 276.59288091 -62.76286874 268.34321206 -63.50195312 259.81689453 C-63.57349609 259.00075684 -63.64503906 258.18461914 -63.71875 257.34375 C-63.77820801 256.61704102 -63.83766602 255.89033203 -63.89892578 255.14160156 C-64.11271184 252.98941979 -64.11271184 252.98941979 -65.1484375 250.203125 C-66.25692263 229.4459011 -64.98272287 208.76440372 -62.1484375 188.203125 C-62.02259277 187.28059937 -61.89674805 186.35807373 -61.76708984 185.40759277 C-60.14741387 173.5374234 -58.48638767 161.67292297 -56.76953125 149.81640625 C-56.63623413 148.87993256 -56.50293701 147.94345886 -56.36560059 146.97860718 C-54.04122499 131.09591249 -54.04122499 131.09591249 -52.1484375 129.203125 C-45.09562094 128.55545387 -38.70483112 129.76557425 -31.8984375 131.453125 C-2.98384531 138.07582129 41.2178139 146.8159535 68.8515625 131.203125 C78.92021141 124.49069239 86.8365732 115.24849122 93.9765625 105.578125 C94.72164062 104.57523437 95.46671875 103.57234375 96.234375 102.5390625 C99.85764037 95.0649837 97.45923453 87.3595255 95.5390625 79.640625 C95.07442971 77.69197533 94.61220399 75.74275021 94.15234375 73.79296875 C93.92756348 72.84276855 93.7027832 71.89256836 93.47119141 70.91357422 C92.62083666 67.19385854 91.90228884 63.45793908 91.2265625 59.703125 C90.14563495 53.74896545 88.96790574 47.83046336 87.66015625 41.921875 C87.05834595 39.15412909 86.4918676 36.38865587 85.94921875 33.609375 C83.99917513 21.94606513 83.99917513 21.94606513 77.8515625 12.203125 C72.34762898 9.75631696 67.30437993 8.56860541 61.33203125 8.02734375 C60.06555 7.90766487 60.06555 7.90766487 58.77348328 7.78556824 C45.97183851 6.72459217 33.10004762 6.94506948 20.26477051 7.00750732 C17.46059482 7.01834338 14.65646693 7.01792307 11.85227394 7.01752186 C-7.16771261 7.01803426 -25.85436228 7.12430224 -44.6484375 10.390625 C-45.92654297 10.60912109 -47.20464844 10.82761719 -48.52148438 11.05273438 C-64.8421472 13.89708431 -81.22114112 17.22436539 -96.671875 23.3203125 C-99.1484375 24.203125 -99.1484375 24.203125 -102.1484375 24.203125 C-102.1484375 24.863125 -102.1484375 25.523125 -102.1484375 26.203125 C-102.7053125 26.3990625 -103.2621875 26.595 -103.8359375 26.796875 C-115.46021459 31.35233494 -122.42270962 41.01088125 -127.484375 52.140625 C-133.32335998 67.31454774 -136.66451933 83.72486547 -138.97412109 99.77954102 C-140.35662406 109.13044789 -142.4571736 118.32642853 -144.484375 127.5546875 C-145.63888002 132.81197897 -146.74407248 138.07635247 -147.8125 143.3515625 C-151.45462175 161.24479647 -155.80798883 178.72395701 -161.1484375 196.203125 C-161.39867676 197.02603027 -161.64891602 197.84893555 -161.90673828 198.69677734 C-163.2851729 203.21043638 -164.70755932 207.70895734 -166.1484375 212.203125 C-168.69434887 220.16355238 -171.17433372 228.11164725 -173.2734375 236.203125 C-174.62265374 241.37241132 -176.18112223 246.24206911 -178.1484375 251.203125 C-180.24621171 257.24678294 -182.1659999 263.35116381 -184.0859375 269.453125 C-184.34753662 270.28231445 -184.60913574 271.11150391 -184.87866211 271.96582031 C-186.34500584 276.62165347 -187.789224 281.28343186 -189.2109375 285.953125 C-190.62013799 290.5608013 -192.11283111 295.13630463 -193.6484375 299.703125 C-196.38177056 307.83999153 -198.93747631 316.02264457 -201.33203125 324.265625 C-201.74990216 325.70315344 -202.16787246 327.140653 -202.5859375 328.578125 C-202.79387939 329.29403809 -203.00182129 330.00995117 -203.21606445 330.74755859 C-204.64180719 335.60811988 -206.1979785 340.41033041 -207.8359375 345.203125 C-209.40688182 349.83250153 -210.79683209 354.36867393 -211.69140625 359.17578125 C-212.1484375 361.203125 -212.1484375 361.203125 -213.05078125 363.828125 C-228.4912073 411.30331398 -229.32333396 464.49490835 -229.38867188 513.93847656 C-229.39425004 517.53432823 -229.41857069 521.12981894 -229.44664383 524.72555542 C-229.46532326 527.54472914 -229.4704776 530.36381408 -229.47200775 533.18304443 C-229.47643003 535.14437271 -229.4949855 537.10565322 -229.51397705 539.06689453 C-229.4908307 548.32170592 -228.05295371 555.59504116 -223.2734375 563.578125 C-222.80164063 564.39023437 -222.32984375 565.20234375 -221.84375 566.0390625 C-218.04076066 570.89356963 -212.9533788 571.99149464 -207.1484375 573.203125 C-206.40151642 573.36044601 -205.65459534 573.51776703 -204.88504028 573.67985535 C-199.05395205 574.8713557 -193.22122516 575.86261042 -187.328125 576.69140625 C-185.96963943 576.88274895 -185.96963943 576.88274895 -184.58370972 577.07795715 C-138.20241442 583.4746078 -90.92344655 584.41141652 -44.27911377 580.38348389 C-41.98605233 580.18937931 -39.69220276 580.00806143 -37.39794922 579.82861328 C-3.56133524 577.15987442 30.18815697 572.67844062 63.24023438 564.8125 C65.99485963 564.16968543 68.75693278 563.57386623 71.5234375 562.984375 C99.25891077 556.98089941 126.5745221 548.81944674 153.4765625 539.828125 C154.19720886 539.587453 154.91785522 539.34678101 155.66033936 539.09881592 C161.90053513 537.00556635 168.12617587 534.90214728 174.24902344 532.48339844 C175.3327272 532.05938248 175.3327272 532.05938248 176.43832397 531.62680054 C177.81584377 531.08353072 179.1891195 530.5293237 180.55703735 529.96231079 C184.3858142 528.45251841 186.89495923 527.92268616 190.8515625 529.203125 C190.8515625 530.523125 190.8515625 531.843125 190.8515625 533.203125 C184.19356988 535.89176037 177.52641242 538.55662468 170.8515625 541.203125 C169.84867188 541.60273437 168.84578125 542.00234375 167.8125 542.4140625 C161.25389434 544.91359625 154.52020464 546.76105701 147.76635742 548.64770508 C141.40504837 550.4363613 135.10331806 552.37140809 128.80761719 554.37817383 C87.89695621 567.37263589 45.53000162 577.38783993 2.8515625 582.203125 C1.60745605 582.34443848 0.36334961 582.48575195 -0.91845703 582.63134766 C-5.83617891 583.18578144 -10.75379346 583.738052 -15.67578125 584.25341797 C-16.73023438 584.36443848 -17.7846875 584.47545898 -18.87109375 584.58984375 C-19.79672119 584.68483154 -20.72234863 584.77981934 -21.67602539 584.87768555 C-24.05517883 585.13488807 -24.05517883 585.13488807 -25.94673157 585.69070435 C-47.80983489 590.77907947 -73.25292227 588.54967393 -95.56298828 588.51879883 C-99.19983272 588.51416373 -102.83634296 588.52112752 -106.47314453 588.53930664 C-135.77449551 588.68416338 -164.62084862 587.50739335 -193.5859375 582.703125 C-194.87951172 582.50332031 -196.17308594 582.30351563 -197.50585938 582.09765625 C-220.2766993 578.44781259 -220.2766993 578.44781259 -227.3359375 569.265625 C-228.28458179 567.91924183 -229.22343169 566.56585677 -230.1484375 565.203125 C-230.7053125 564.419375 -231.2621875 563.635625 -231.8359375 562.828125 C-235.71232745 555.07534509 -236.59026767 547.51769435 -236.51171875 538.953125 C-236.51316895 537.88252335 -236.51461914 536.81192169 -236.51611328 535.70887756 C-236.5148559 532.20667271 -236.48959076 528.70520607 -236.4609375 525.203125 C-236.4550058 523.99316864 -236.4490741 522.78321228 -236.44296265 521.53659058 C-236.15986156 464.2708269 -233.61068454 407.42238079 -217.1484375 352.203125 C-216.88450195 351.30287598 -216.62056641 350.40262695 -216.34863281 349.47509766 C-212.63854147 336.83995384 -208.56298009 324.34191904 -204.35546875 311.86450195 C-201.9939385 304.8343689 -199.78452614 297.78498943 -197.75170898 290.65356445 C-196.41074709 285.98108601 -194.81651256 281.45703364 -193.10546875 276.91015625 C-191.61963078 272.70735741 -190.47286536 268.41670282 -189.2734375 264.125 C-186.45524411 254.16942554 -183.21917382 244.3238766 -179.89428711 234.52758789 C-177.18486712 226.53768129 -174.7477266 218.50473868 -172.47314453 210.38037109 C-170.87665488 204.69346099 -169.18957509 199.04255254 -167.43847656 193.40136719 C-164.48482336 183.88474071 -161.87140487 174.40538202 -159.72705078 164.67504883 C-159.11507942 162.06061421 -158.44465285 159.46336357 -157.77275085 156.86380005 C-155.51108783 148.0583264 -153.71895908 139.20978091 -152.08364868 130.26876831 C-151.33868039 126.19800583 -150.57703961 122.13035954 -149.81640625 118.0625 C-149.66983078 117.27689194 -149.52325531 116.49128387 -149.37223816 115.68186951 C-148.17064427 109.26430171 -146.87919812 102.86999997 -145.49389648 96.48950195 C-144.68073645 92.74407725 -143.9087693 88.99633635 -143.1953125 85.23046875 C-138.90254822 62.62805704 -133.75255903 39.13346174 -114.3359375 24.515625 C-95.5587576 11.74258186 -70.07558917 8.01204742 -48.1484375 4.203125 C-46.89401855 3.98245361 -46.89401855 3.98245361 -45.61425781 3.75732422 C-43.16910246 3.33189213 -40.72206705 2.92054423 -38.2734375 2.515625 C-37.22446289 2.33652588 -37.22446289 2.33652588 -36.15429688 2.15380859 C-24.22099353 0.25732455 -12.05804829 0.04269267 0 0 Z " fill="#161616" transform="translate(622.1484375,213.796875)"/>
<path d="M0 0 C0.87269531 -0.02578125 1.74539063 -0.0515625 2.64453125 -0.078125 C5.62654377 0.30665081 6.9646114 1.28100777 9.1875 3.25 C8.1975 4.735 8.1975 4.735 7.1875 6.25 C5.2421875 6.54296875 5.2421875 6.54296875 3.0625 6.4375 C1.78375 6.375625 0.505 6.31375 -0.8125 6.25 C-2.55361338 18.77556593 -4.23281717 31.30490388 -5.72192383 43.86328125 C-5.83560303 44.79914063 -5.94928223 45.735 -6.06640625 46.69921875 C-6.16252197 47.50705811 -6.2586377 48.31489746 -6.35766602 49.1472168 C-6.76164731 51.90309351 -7.26490405 54.61201493 -7.79223633 57.34619141 C-8.88688124 63.29965777 -9.43386686 69.22954269 -9.8828125 75.26171875 C-9.96876678 76.35595657 -10.05472107 77.4501944 -10.14328003 78.57759094 C-10.4133057 82.0305076 -10.67553585 85.48396336 -10.9375 88.9375 C-11.120576 91.2962642 -11.30416497 93.65498865 -11.48828125 96.01367188 C-11.93561401 101.75866871 -12.37656942 107.50412732 -12.8125 113.25 C-13.1425 113.25 -13.4725 113.25 -13.8125 113.25 C-14.3075 110.28 -14.3075 110.28 -14.8125 107.25 C-15.8025 107.745 -15.8025 107.745 -16.8125 108.25 C-16.88869807 103.93484452 -16.94202491 99.62008156 -16.97729492 95.30444336 C-16.99205158 93.84734251 -17.01225576 92.39028305 -17.03881836 90.93334961 C-17.24345257 79.38957273 -16.03643061 68.40047855 -14.23605347 57.00814819 C-13.51482208 52.31154384 -12.90005855 47.60112263 -12.27734375 42.890625 C-12.02308732 40.99475129 -11.76853018 39.09891789 -11.51367188 37.203125 C-11.12797283 34.32706036 -10.74348354 31.45085384 -10.36206055 28.57421875 C-9.98318949 25.72086849 -9.59941159 22.8682123 -9.21484375 20.015625 C-9.10333481 19.16550842 -8.99182587 18.31539185 -8.87693787 17.43951416 C-6.52508561 0.11464279 -6.52508561 0.11464279 0 0 Z " fill="#0F0F0F" transform="translate(574.8125,342.75)"/>
<path d="M0 0 C13.42685686 1.37162823 26.70216718 1.70027649 40.18530273 1.63183594 C41.50846528 1.62567733 41.50846528 1.62567733 42.85835838 1.6193943 C51.12931931 1.57714164 59.39997259 1.50435295 67.6706543 1.42553711 C72.24464913 1.3829397 76.81855585 1.35479983 81.39270401 1.3352375 C83.95613845 1.31959026 86.51898811 1.28668165 89.08224487 1.25340271 C90.63856577 1.24570919 92.19489143 1.23890923 93.7512207 1.2331543 C94.45856857 1.21922638 95.16591644 1.20529846 95.8946991 1.19094849 C100.68922059 1.20005471 100.68922059 1.20005471 103.09182739 3.06129456 C103.43462738 3.54992477 103.77742737 4.03855499 104.13061523 4.54199219 C101.99326258 6.67934484 97.49260516 6.05195168 94.59936523 6.26074219 C92.18925473 6.27584484 92.18925473 6.27584484 91.13061523 7.54199219 C88.59829906 7.64775429 86.0931234 7.68877285 83.56005859 7.68725586 C82.36944069 7.69229378 82.36944069 7.69229378 81.1547699 7.69743347 C78.50998393 7.70698833 75.86526118 7.7088901 73.22045898 7.70996094 C71.37691726 7.71317491 69.53337579 7.71653909 67.68983459 7.720047 C63.80835379 7.7260527 59.92689528 7.72788588 56.04541016 7.72729492 C51.11342129 7.72719425 46.18157949 7.74074076 41.24962521 7.75806713 C37.43074412 7.76929717 33.61189706 7.77121064 29.79300117 7.7706852 C27.97805852 7.77185288 26.16311462 7.77620519 24.3481884 7.78401756 C-5.96826585 7.90209689 -5.96826585 7.90209689 -10.80335999 3.96867371 C-11.15514816 3.4978688 -11.50693634 3.0270639 -11.86938477 2.54199219 C-12.85938477 3.03699219 -12.85938477 3.03699219 -13.86938477 3.54199219 C-16.54174686 3.67614691 -19.19188965 3.58517759 -21.86938477 3.54199219 C-21.86938477 2.55199219 -21.86938477 1.56199219 -21.86938477 0.54199219 C-16.07295375 -2.35622332 -6.34914357 -0.65109892 0 0 Z " fill="#141415" transform="translate(471.869384765625,794.4580078125)"/>
<path d="M0 0 C4.90361265 0.49036127 9.60144401 1.32512598 14.41015625 2.41015625 C21.67620498 3.98194716 28.94514231 5.14555295 36.3125 6.125 C37.59398926 6.29676758 38.87547852 6.46853516 40.19580078 6.64550781 C52.44286226 8.20227362 64.66273014 8.80790291 77 9 C77 9.33 77 9.66 77 10 C69.08 10.33 61.16 10.66 53 11 C53 11.66 53 12.32 53 13 C55.475 13.495 55.475 13.495 58 14 C58 14.33 58 14.66 58 15 C50.24465658 15.26486978 42.84788727 14.48229384 35.1875 13.3125 C34.01856201 13.13750977 32.84962402 12.96251953 31.64526367 12.78222656 C20.94161234 11.11412506 10.47490346 8.73941741 0 6 C0.66 4.68 1.32 3.36 2 2 C1.34 1.34 0.68 0.68 0 0 Z " fill="#1D1D1D" transform="translate(581,344)"/>
<path d="M0 0 C4.62 0 9.24 0 14 0 C13.67 1.32 13.34 2.64 13 4 C7.4510238 4.86215498 1.90090373 5.71637594 -3.65039062 6.56347656 C-5.53613691 6.85234859 -7.421561 7.14333256 -9.30664062 7.43652344 C-12.02650969 7.85916694 -14.74747211 8.27403685 -17.46875 8.6875 C-18.30241089 8.81874268 -19.13607178 8.94998535 -19.99499512 9.08520508 C-25.05843085 9.84529395 -29.87946029 10.1233865 -35 10 C-35 9.34 -35 8.68 -35 8 C-36.32 7.67 -37.64 7.34 -39 7 C-33.4427859 4.31539183 -28.2810638 3.15793 -22.1875 2.3125 C-20.92969727 2.11817383 -20.92969727 2.11817383 -19.64648438 1.91992188 C-13.73312554 1.06087128 -7.97048191 0.8494033 -2 1 C-2 1.66 -2 2.32 -2 3 C-0.84188612 1.94729537 -0.84188612 1.94729537 0 0 Z " fill="#111112" transform="translate(594,216)"/>
<path d="M0 0 C3.6011513 0.02084752 7.20233296 0.02967487 10.80352783 0.03967285 C17.80815631 0.0608115 24.81266602 0.09472074 31.81719971 0.1373291 C31.81719971 0.4673291 31.81719971 0.7973291 31.81719971 1.1373291 C30.67654053 1.15714844 29.53588135 1.17696777 28.36065674 1.1973877 C24.13744648 1.27333478 19.91458572 1.36206839 15.69171143 1.45471191 C13.86235442 1.49304687 12.03292086 1.52789173 10.20343018 1.5592041 C7.57701211 1.60475715 4.95112312 1.66276641 2.32501221 1.7232666 C1.09369064 1.74059341 1.09369064 1.74059341 -0.1625061 1.75827026 C-4.64526469 1.6945835 -4.64526469 1.6945835 -8.18280029 4.1373291 C5.67719971 4.6323291 5.67719971 4.6323291 19.81719971 5.1373291 C19.81719971 5.4673291 19.81719971 5.7973291 19.81719971 6.1373291 C-8.89280029 6.6323291 -8.89280029 6.6323291 -38.18280029 7.1373291 C-38.18280029 6.8073291 -38.18280029 6.4773291 -38.18280029 6.1373291 C-35.87280029 6.1373291 -33.56280029 6.1373291 -31.18280029 6.1373291 C-31.51280029 5.1473291 -31.84280029 4.1573291 -32.18280029 3.1373291 C-36.14280029 3.1373291 -40.10280029 3.1373291 -44.18280029 3.1373291 C-43.19280029 3.7973291 -42.20280029 4.4573291 -41.18280029 5.1373291 C-43.16280029 5.4673291 -45.14280029 5.7973291 -47.18280029 6.1373291 C-46.85280029 5.1473291 -46.52280029 4.1573291 -46.18280029 3.1373291 C-47.83280029 3.1373291 -49.48280029 3.1373291 -51.18280029 3.1373291 C-51.18280029 2.8073291 -51.18280029 2.4773291 -51.18280029 2.1373291 C-34.1240268 0.00061625 -17.15890969 -0.11022535 0 0 Z " fill="#262627" transform="translate(638.1828002929688,213.8626708984375)"/>
<path d="M0 0 C0.495 2.475 0.495 2.475 1 5 C-4.94 5.495 -4.94 5.495 -11 6 C-11 6.66 -11 7.32 -11 8 C-15.52081966 8.02917237 -20.04161488 8.0468568 -24.5625 8.0625 C-25.83931641 8.07087891 -27.11613281 8.07925781 -28.43164062 8.08789062 C-30.29272461 8.09272461 -30.29272461 8.09272461 -32.19140625 8.09765625 C-33.89598999 8.10551147 -33.89598999 8.10551147 -35.63500977 8.11352539 C-39.15208567 7.99486905 -42.52771145 7.55780511 -46 7 C-45.34 6.67 -44.68 6.34 -44 6 C-44 5.34 -44 4.68 -44 4 C-41.64516725 2.82258363 -40.11111285 2.83036069 -37.484375 2.75390625 C-36.56914063 2.72224365 -35.65390625 2.69058105 -34.7109375 2.65795898 C-33.73382812 2.62645752 -32.75671875 2.59495605 -31.75 2.5625 C-24.00841891 2.27156233 -16.51652899 1.71095559 -8.875 0.40234375 C-5.88052844 -0.01671952 -3.01962775 -0.06740241 0 0 Z " fill="#0E0E0E" transform="translate(678,351)"/>
<path d="M0 0 C0.0506268 7.4930534 0.08570263 14.98606284 0.10986328 22.47924805 C0.11993328 25.02939502 0.13359004 27.57953042 0.15087891 30.12963867 C0.17508312 33.7908819 0.18647305 37.45197274 0.1953125 41.11328125 C0.20563507 42.2571077 0.21595764 43.40093414 0.22659302 44.579422 C0.22674408 45.64029526 0.22689514 46.70116852 0.22705078 47.79418945 C0.231492 48.72906693 0.23593323 49.6639444 0.24050903 50.62715149 C0 53 0 53 -2 56 C-2.66 55.67 -3.32 55.34 -4 55 C-4.0758691 47.48867235 -4.12852324 39.97744296 -4.16479492 32.46582031 C-4.1799107 29.90881661 -4.20040366 27.35183894 -4.22631836 24.79492188 C-4.26257862 21.12623683 -4.27969836 17.4578936 -4.29296875 13.7890625 C-4.30845261 12.64007477 -4.32393646 11.49108704 -4.33988953 10.30728149 C-4.34011612 9.2463327 -4.34034271 8.18538391 -4.34057617 7.09228516 C-4.34723801 6.15518707 -4.35389984 5.21808899 -4.36076355 4.25259399 C-4.24171158 3.50923798 -4.12265961 2.76588196 -4 2 C-1 0 -1 0 0 0 Z " fill="#040404" transform="translate(391,708)"/>
<path d="M0 0 C1.89213369 2.38573379 3.02391783 4.07175348 4 7 C4.66 5.68 5.32 4.36 6 3 C5.67 28.41 5.34 53.82 5 80 C4.67 80 4.34 80 4 80 C3.67 63.5 3.34 47 3 30 C2.01 30.33 1.02 30.66 0 31 C0 37.93 0 44.86 0 52 C-0.33 52 -0.66 52 -1 52 C-1.16237009 34.64444099 -0.66190212 17.33972312 0 0 Z " fill="#282728" transform="translate(387,679)"/>
<path d="M0 0 C6.21133256 -0.04938976 12.42255112 -0.08571476 18.6340332 -0.10986328 C20.74766022 -0.11992894 22.8612733 -0.13358257 24.97485352 -0.15087891 C28.01061442 -0.1751023 31.04619143 -0.18647738 34.08203125 -0.1953125 C35.02899368 -0.20563507 35.97595612 -0.21595764 36.95161438 -0.22659302 C37.83230087 -0.22674408 38.71298737 -0.22689514 39.62036133 -0.22705078 C40.39535477 -0.231492 41.17034821 -0.23593323 41.96882629 -0.24050903 C44 0 44 0 47 2 C46.67 2.99 46.34 3.98 46 5 C28.98916584 5.21532701 11.99856647 4.56873652 -5 4 C-4.360625 3.690625 -3.72125 3.38125 -3.0625 3.0625 C-1.06389179 2.1654837 -1.06389179 2.1654837 0 1 C0 0.67 0 0.34 0 0 Z " fill="#040404" transform="translate(630,215)"/>
<path d="M0 0 C1.12776855 -0.02126953 2.25553711 -0.04253906 3.41748047 -0.06445312 C4.4695166 -0.06896484 5.52155273 -0.07347656 6.60546875 -0.078125 C8.00575317 -0.09214355 8.00575317 -0.09214355 9.43432617 -0.10644531 C12.22278685 0.31149459 13.08788887 1.07765674 14.8125 3.25 C11.0959981 6.9665019 -0.04304555 5.33787108 -5.04296875 5.34765625 C-7.82039228 5.34481125 -10.59763267 5.32950756 -13.375 5.3125 C-14.81835781 5.30747088 -16.26171733 5.30291049 -17.70507812 5.29882812 C-21.19925505 5.2879438 -24.69336612 5.2707585 -28.1875 5.25 C-28.1875 4.92 -28.1875 4.59 -28.1875 4.25 C-31.1575 3.92 -34.1275 3.59 -37.1875 3.25 C-36.8575 2.59 -36.5275 1.93 -36.1875 1.25 C-24.12963943 0.57340662 -12.07718074 0.11497246 0 0 Z " fill="#050505" transform="translate(561.1875,795.75)"/>
<path d="M0 0 C0.45502834 12.7155142 -0.88779925 25.34723748 -2 38 C-2.33 38 -2.66 38 -3 38 C-3.33 36.02 -3.66 34.04 -4 32 C-4.99 32.495 -4.99 32.495 -6 33 C-6.0294191 29.52085157 -6.04693792 26.04173583 -6.0625 22.5625 C-6.07087891 21.58861328 -6.07925781 20.61472656 -6.08789062 19.61132812 C-6.10777346 13.66636086 -6.11856726 7.85051671 -5 2 C-1.80981354 0 -1.80981354 0 0 0 Z " fill="#020202" transform="translate(564,418)"/>
<path d="M0 0 C0.38218767 1.65614657 0.71395102 3.32457024 1 5 C-0.64353573 6.64353573 -2.58897297 6.22521732 -4.85546875 6.31640625 C-5.86480469 6.35838135 -6.87414062 6.40035645 -7.9140625 6.44360352 C-9.53441406 6.50245728 -9.53441406 6.50245728 -11.1875 6.5625 C-12.27417969 6.6049585 -13.36085938 6.64741699 -14.48046875 6.69116211 C-22.32481135 6.98123936 -30.15018154 7.12438093 -38 7 C-35.12488551 4.12488551 -31.89517306 4.16385049 -28 4 C-25 4.4375 -25 4.4375 -23 5 C-22.80792969 4.35546875 -22.61585938 3.7109375 -22.41796875 3.046875 C-21 1 -21 1 -17.98828125 0.390625 C-16.77527344 0.34421875 -15.56226563 0.2978125 -14.3125 0.25 C-13.11238281 0.19328125 -11.91226563 0.1365625 -10.67578125 0.078125 C-7.11576254 0.00246042 -3.56069927 -0.01828344 0 0 Z " fill="#0B0B0A" transform="translate(809,509)"/>
<path d="M0 0 C0 0.33 0 0.66 0 1 C-0.98742187 1.03738281 -1.97484375 1.07476562 -2.9921875 1.11328125 C-4.91417969 1.21189453 -4.91417969 1.21189453 -6.875 1.3125 C-8.15117188 1.37050781 -9.42734375 1.42851562 -10.7421875 1.48828125 C-11.81726563 1.65714844 -12.89234375 1.82601563 -14 2 C-14.99 3.485 -14.99 3.485 -16 5 C-19.2578125 5.51171875 -19.2578125 5.51171875 -23.125 5.6875 C-25.04699219 5.78611328 -25.04699219 5.78611328 -27.0078125 5.88671875 C-27.99523437 5.92410156 -28.98265625 5.96148438 -30 6 C-29.01 6.66 -28.02 7.32 -27 8 C-31.29 8 -35.58 8 -40 8 C-40 7.01 -40 6.02 -40 5 C-40.66 5 -41.32 5 -42 5 C-42 4.34 -42 3.68 -42 3 C-27.9716105 1.18864202 -14.16433179 -0.57769933 0 0 Z " fill="#101010" transform="translate(802,509)"/>
<path d="M0 0 C20.40311215 0.80832002 20.40311215 0.80832002 27 4 C28.32421875 6.609375 28.32421875 6.609375 29 9 C24.125 7.125 24.125 7.125 23 6 C22.67 6.66 22.34 7.32 22 8 C14.08 7.34 6.16 6.68 -2 6 C-0.68 5.01 0.64 4.02 2 3 C1.34 2.01 0.68 1.02 0 0 Z " fill="#0D0D0D" transform="translate(674,215)"/>
<path d="M0 0 C4.62 0 9.24 0 14 0 C13.67 1.32 13.34 2.64 13 4 C3.57182803 5.46051903 -5.43529656 6.29032827 -15 6 C-13.82421875 3.51953125 -13.82421875 3.51953125 -12 1 C-9.51953125 0.51171875 -9.51953125 0.51171875 -6.8125 0.6875 C-5.46091797 0.75517578 -5.46091797 0.75517578 -4.08203125 0.82421875 C-3.05142578 0.91123047 -3.05142578 0.91123047 -2 1 C-2 1.66 -2 2.32 -2 3 C-0.84188612 1.94729537 -0.84188612 1.94729537 0 0 Z " fill="#060605" transform="translate(594,216)"/>
<path d="M0 0 C0.99 0.33 1.98 0.66 3 1 C3 7.93 3 14.86 3 22 C2.34 21.01 1.68 20.02 1 19 C0.01 19.33 -0.98 19.66 -2 20 C-2.33 22.97 -2.66 25.94 -3 29 C-3.33 29 -3.66 29 -4 29 C-4.25134342 22.40921694 -3.90264886 15.97742359 -3.125 9.4375 C-3.04652832 8.73496094 -2.96805664 8.03242188 -2.88720703 7.30859375 C-2.24285948 2.24285948 -2.24285948 2.24285948 0 0 Z " fill="#1A1A1A" transform="translate(562,400)"/>
<path d="M0 0 C0.309375 0.639375 0.61875 1.27875 0.9375 1.9375 C1.8345163 3.93610821 1.8345163 3.93610821 3 5 C3.10069436 7.76021008 3.13868592 10.49000634 3.125 13.25 C3.12886719 14.01441406 3.13273437 14.77882813 3.13671875 15.56640625 C3.12990736 19.51019849 2.9702625 23.14975199 2 27 C1.34 26.67 0.68 26.34 0 26 C-0.33 28.97 -0.66 31.94 -1 35 C-1.33 35 -1.66 35 -2 35 C-2.02895976 31.87501937 -2.04678483 28.7500731 -2.0625 25.625 C-2.07087891 24.73554687 -2.07925781 23.84609375 -2.08789062 22.9296875 C-2.09111328 22.07890625 -2.09433594 21.228125 -2.09765625 20.3515625 C-2.10289307 19.56604004 -2.10812988 18.78051758 -2.11352539 17.97119141 C-2 16 -2 16 -1 14 C-0.93001104 11.20481593 -1.00294839 8.42410998 -1.0625 5.62890625 C-1 3 -1 3 0 0 Z " fill="#020202" transform="translate(390,660)"/>
<path d="M0 0 C0.33 0 0.66 0 1 0 C0.54240047 6.5508985 -0.2100144 12.6753842 -2 19 C-2.66 18.01 -3.32 17.02 -4 16 C-5.32 16.33 -6.64 16.66 -8 17 C-7.22225866 11.94468132 -6.14051606 6.98283716 -5 2 C-4.360625 1.855625 -3.72125 1.71125 -3.0625 1.5625 C-1.02454854 1.18992819 -1.02454854 1.18992819 0 0 Z " fill="#1C1C1B" transform="translate(471,363)"/>
<path d="M0 0 C0.0625 2.25 0.0625 2.25 -1 5 C-7.41170179 9.71950931 -15.34247594 9.76329137 -23 10 C-20.1004339 8.34123921 -18.08364791 7.7638784 -14.75 7.875 C-12.89375 7.936875 -12.89375 7.936875 -11 8 C-11.66 6.35 -12.32 4.7 -13 3 C-4.58823529 -1.52941176 -4.58823529 -1.52941176 0 0 Z " fill="#1F1F1F" transform="translate(690,348)"/>
<path d="M0 0 C2.61514428 3.92271643 1.84728768 6.60809597 1 11 C0.39303927 13.68796895 -0.28671622 16.3370739 -1 19 C-1.66 18.01 -2.32 17.02 -3 16 C-3.99 16 -4.98 16 -6 16 C-5.53118166 10.37417987 -4.15551956 4.15551956 0 0 Z " fill="#0E0F0E" transform="translate(419,529)"/>
<path d="M0 0 C1.05960937 0.00676758 1.05960937 0.00676758 2.140625 0.01367188 C3.88545275 0.02546125 5.630237 0.04339676 7.375 0.0625 C6.385 0.7225 5.395 1.3825 4.375 2.0625 C6.685 2.3925 8.995 2.7225 11.375 3.0625 C11.045 4.0525 10.715 5.0425 10.375 6.0625 C3.85192308 6.43173077 3.85192308 6.43173077 1.4375 4.5625 C1.086875 4.0675 0.73625 3.5725 0.375 3.0625 C-0.615 3.5575 -0.615 3.5575 -1.625 4.0625 C-4.2973621 4.19665472 -6.94750488 4.10568541 -9.625 4.0625 C-9.625 3.0725 -9.625 2.0825 -9.625 1.0625 C-6.55966836 -0.47016582 -3.35745728 -0.04026471 0 0 Z " fill="#0C0C0C" transform="translate(459.625,793.9375)"/>
<path d="M0 0 C8.91 0 17.82 0 27 0 C22.43493244 4.56506756 12.39617086 3.11802656 6.19140625 3.23046875 C3.739947 2.9726504 2.12215778 2.22302031 0 1 C0 0.67 0 0.34 0 0 Z " fill="#0A0909" transform="translate(633,216)"/>
<path d="M0 0 C-1.32 0.99 -2.64 1.98 -4 3 C-1.03 3.495 -1.03 3.495 2 4 C2 4.33 2 4.66 2 5 C0.20909747 5.19466332 -1.58276505 5.38051213 -3.375 5.5625 C-4.87160156 5.71912109 -4.87160156 5.71912109 -6.3984375 5.87890625 C-9 6 -9 6 -11 5 C-11 4.34 -11 3.68 -11 3 C-12.65 2.67 -14.3 2.34 -16 2 C-16 1.67 -16 1.34 -16 1 C-10.63904667 -0.12862175 -5.44693314 -0.09688221 0 0 Z " fill="#1A1A1A" transform="translate(584,218)"/>
<path d="M0 0 C0 0.33 0 0.66 0 1 C-0.98742187 1.06058594 -1.97484375 1.12117188 -2.9921875 1.18359375 C-4.27351562 1.26738281 -5.55484375 1.35117187 -6.875 1.4375 C-8.15117188 1.51871094 -9.42734375 1.59992188 -10.7421875 1.68359375 C-13.88300152 1.79206027 -13.88300152 1.79206027 -16 3 C-17.87862875 2.91255632 -19.75455181 2.75824458 -21.625 2.5625 C-22.62789062 2.46066406 -23.63078125 2.35882813 -24.6640625 2.25390625 C-25.43492187 2.17011719 -26.20578125 2.08632813 -27 2 C-27 1.67 -27 1.34 -27 1 C-17.98175113 -0.06996173 -9.06335876 -0.10234659 0 0 Z M-22 3 C-20.02 3 -18.04 3 -16 3 C-16 3.66 -16 4.32 -16 5 C-17.65 5 -19.3 5 -21 5 C-21.33 4.34 -21.66 3.68 -22 3 Z " fill="#454544" transform="translate(802,509)"/>
<path d="M0 0 C-0.33 1.65 -0.66 3.3 -1 5 C-3.31 5.33 -5.62 5.66 -8 6 C-8.33 5.01 -8.66 4.02 -9 3 C-8.34 2.67 -7.68 2.34 -7 2 C-7.99 1.34 -8.98 0.68 -10 0 C-6.33694766 -0.74926071 -3.57644848 -1.2380014 0 0 Z " fill="#1D1C1D" transform="translate(751,515)"/>
<path d="M0 0 C0 4.29 0 8.58 0 13 C-0.33 13 -0.66 13 -1 13 C-1.33 11.35 -1.66 9.7 -2 8 C-2.99 8.495 -2.99 8.495 -4 9 C-4.33 6.69 -4.66 4.38 -5 2 C-1.125 0 -1.125 0 0 0 Z " fill="#0D0D0D" transform="translate(564,418)"/>
<path d="M0 0 C0.8971875 0.309375 0.8971875 0.309375 1.8125 0.625 C-0.1875 2.625 -0.1875 2.625 -2.5 3.4375 C-5.84252989 4.91443181 -7.68208974 6.99110716 -10.1875 9.625 C-11.49925986 10.65313611 -12.8244893 11.66584432 -14.1875 12.625 C-12.80286056 9.49750593 -11.19227577 7.3845015 -8.75 5 C-8.15316406 4.40960938 -7.55632812 3.81921875 -6.94140625 3.2109375 C-2.85006507 -0.48858258 -2.85006507 -0.48858258 0 0 Z " fill="#DBDBDB" transform="translate(516.1875,241.375)"/>
<path d="M0 0 C-0.99 1.98 -1.98 3.96 -3 6 C-4.65 6 -6.3 6 -8 6 C-7.1875 3.0625 -7.1875 3.0625 -6 0 C-3 -1 -3 -1 0 0 Z " fill="#0C0D0C" transform="translate(730,520)"/>
<path d="M0 0 C1.875 0.3125 1.875 0.3125 4 1 C4.66 1.99 5.32 2.98 6 4 C0.39 3.67 -5.22 3.34 -11 3 C-11 2.67 -11 2.34 -11 2 C-5.555 1.505 -5.555 1.505 0 1 C0 0.67 0 0.34 0 0 Z " fill="#535353" transform="translate(457,796)"/>
<path d="M0 0 C3.63 0 7.26 0 11 0 C11.33 0.66 11.66 1.32 12 2 C11.34 2 10.68 2 10 2 C10 2.99 10 3.98 10 5 C9.46375 4.71125 8.9275 4.4225 8.375 4.125 C5.64719516 2.83288192 2.87387282 1.91441408 0 1 C0 0.67 0 0.34 0 0 Z " fill="#020202" transform="translate(462,795)"/>
<path d="M0 0 C0.66 0.66 1.32 1.32 2 2 C1.34 2 0.68 2 0 2 C0 1.34 0 0.68 0 0 Z M0 2 C-0.33 2.66 -0.66 3.32 -1 4 C-5.62 4 -10.24 4 -15 4 C-10.95437444 -0.04562556 -5.22987202 0.85197931 0 2 Z " fill="#040404" transform="translate(786,512)"/>
<path d="M0 0 C0.33 0.99 0.66 1.98 1 3 C0.01 4.485 0.01 4.485 -1 6 C-1.99 6 -2.98 6 -4 6 C-4.33 6.99 -4.66 7.98 -5 9 C-5.66 9 -6.32 9 -7 9 C-5.87548273 6.0280615 -4.77706209 3.66559313 -3 1 C-2.01 0.67 -1.02 0.34 0 0 Z " fill="#090908" transform="translate(495,260)"/>
<path d="M0 0 C0.66 0.33 1.32 0.66 2 1 C-0.97 3.97 -3.94 6.94 -7 10 C-7.66 9.67 -8.32 9.34 -9 9 C-6.21000549 5.51250686 -3.74764169 2.49842779 0 0 Z " fill="#2C2D2D" transform="translate(507,239)"/>
<path d="M0 0 C0.99 0.33 1.98 0.66 3 1 C2.67 1.99 2.34 2.98 2 4 C2.99 4.66 3.98 5.32 5 6 C3.02 6.33 1.04 6.66 -1 7 C-1.625 5.125 -1.625 5.125 -2 3 C-1.34 2.34 -0.68 1.68 0 1 C0 0.67 0 0.34 0 0 Z " fill="#181919" transform="translate(721,521)"/>
<path d="M0 0 C0.99 0.66 1.98 1.32 3 2 C3 3.32 3 4.64 3 6 C1.35 6 -0.3 6 -2 6 C-1.34 4.02 -0.68 2.04 0 0 Z " fill="#040404" transform="translate(460,395)"/>
<path d="M0 0 C0 0.66 0 1.32 0 2 C0.99 2 1.98 2 3 2 C3 2.66 3 3.32 3 4 C1.35 4 -0.3 4 -2 4 C-2 3.34 -2 2.68 -2 2 C-3.32 1.67 -4.64 1.34 -6 1 C-4 0 -4 0 0 0 Z " fill="#020202" transform="translate(561,222)"/>
<path d="M0 0 C1.2065625 0.0309375 1.2065625 0.0309375 2.4375 0.0625 C1.7775 1.7125 1.1175 3.3625 0.4375 5.0625 C-0.5525 5.0625 -1.5425 5.0625 -2.5625 5.0625 C-3.125 3.125 -3.125 3.125 -3.5625 1.0625 C-2.5625 0.0625 -2.5625 0.0625 0 0 Z " fill="#020202" transform="translate(742.5625,515.9375)"/>
<path d="M0 0 C0.33 0.66 0.66 1.32 1 2 C-0.76227632 5.61730402 -2.64326421 7.80075931 -6 10 C-4.34832443 6.4213696 -2.21713508 3.25179812 0 0 Z " fill="#3C3C3D" transform="translate(718,316)"/>
<path d="M0 0 C2.31 0 4.62 0 7 0 C6.67 0.66 6.34 1.32 6 2 C6.66 2.66 7.32 3.32 8 4 C5.6875 4.25 5.6875 4.25 3 4 C1.1875 2 1.1875 2 0 0 Z " fill="#303130" transform="translate(674,215)"/>
</svg>
